<svg width="285" height="300" viewBox="0 0 285 300" fill="none" xmlns="http://www.w3.org/2000/svg">
<g clip-path="url(#clip0_162_16)">
<path d="M284.493 83.5038C271.771 74.975 256.467 70 240 70C195.817 70 160 105.817 160 150C160 194.183 195.817 230 240 230C256.467 230 271.771 225.025 284.493 216.496C259.98 265.979 208.963 300 150 300C67.1573 300 0 232.843 0 150C0 67.1573 67.1573 0 150 0C208.963 0 259.98 34.0208 284.493 83.5038Z" fill="#907FDF"/>
<path d="M240 70C256.466 70 271.771 74.9749 284.493 83.5038C284.473 83.4644 284.454 83.425 284.434 83.3857C258.33 64.8782 226.435 54 192 54C103.634 54 32 125.634 32 214C32 225.217 33.1538 236.163 35.3501 246.729C62.8657 279.309 104.017 300 150 300C208.963 300 259.98 265.979 284.493 216.496C271.771 225.025 256.466 230 240 230C195.817 230 160 194.183 160 150C160 105.817 195.817 70 240 70Z" fill="#524B9B"/>
<path d="M272.541 76.8952C262.599 72.4634 251.587 70 240 70C195.817 70 160 105.817 160 150C160 194.183 195.817 230 240 230C256.466 230 271.771 225.025 284.493 216.496C259.98 265.979 208.963 300 150 300C146.518 300 143.064 299.881 139.642 299.648C106.003 276.151 84 237.145 84 193C84 121.203 142.203 63 214 63C235.058 63 254.947 68.0069 272.541 76.8952Z" fill="#3A3A60"/>
</g>
<defs>
<clipPath id="clip0_162_16">
<rect width="284.493" height="300" fill="white"/>
</clipPath>
</defs>
</svg>
